<?xml version="1.0" encoding="utf-8"?>
<!-- Generator: Adobe Illustrator 18.1.0, SVG Export Plug-In . SVG Version: 6.00 Build 0)  -->
<svg version="1.1" xmlns="http://www.w3.org/2000/svg" xmlns:xlink="http://www.w3.org/1999/xlink" x="0px" y="0px"
	 viewBox="0 0 281 360" enable-background="new 0 0 281 360" xml:space="preserve">
<g id="background-orange" display="none">
	<rect display="inline" fill="#F78F1E" width="281" height="360"/>
</g>
<g id="hair">
	<g>
		<path fill="#FFFFFF" d="M61.9,286.3c-3.2-0.9-2.6-3.8-3.2-6c-0.4-13.7-7.1-25-14.4-35.8c-2.9-4.2-6.5-9.8-13.5-3.3
			c-4.9,4.6-7-0.4-8.7-4.6c-5.5-13.9-11.1-27.7-16.9-41.5c-4.3-10.2-3-19.8,1.9-29.6c6.9-13.8,13.4-27.8,22.8-40.3
			c2.8-3.7,4.5-9.4,9.7-9c6.4,0.5,4.7,7,5.8,11.3c0.3,1.2,1.6,2.2,3.2,4.3c15.7-22.4,26.6-46,30.5-72.6c0.4-3-1.7-7.7,2.7-8.3
			c4.8-0.6,5,4.2,6.2,7.8c2.2,7,5,13.9,8.5,23.5c12.9-26.5,31.3-45.9,48.9-66c2.2-2.5,4.4-5,7.1-6.9c7.1-5.1,12.5-7.5,15.5,4.9
			c4.8,20.3,8.3,41.1,18.9,59.7c2.3,4,3.3,8.6,7,12.2c3.4-5.6,5.9-10.9,7.9-16.6c2.9-8.3,6.5-13.3,15.4-3.1
			c11.8,13.4,17.3,29.4,22.5,46.5c7.8-4.9,14.4-9.3,21.2-13.1c5.9-3.4,10.1-1,8.3,5.5c-5.6,20.7,2.3,39.9,7,58.9
			c4.9,20-3.8,36.7-6.7,54.8c-0.3,1.9-1,3.9-3.2,4c-20.2,0.5-23.5,18.1-30.3,31.1c-5.4,10.2-9.4,10.9-14.4,1.1
			c-5.6-10.9-10.8-9.7-15.9-0.3c-6.3,11.4-15.4,21-19.1,34.1c-1.5,5.2-6.3,12.9-11.5,1.1c-1.1-2.4-3.5-4.8-5.9-5.9
			c-2.7-1.3-5.7-4.9-8.8-2.6c-1.6,1.2-1.7,5.1-1.6,7.7c0.7,20.7-5.8,41.9,4.3,62c1,2,1.2,4-0.6,4.8c-1.5,0.7-4.2,0.8-5.3-0.2
			c-5.1-4.1-9.2-9-13.3-14.3c-20.2-26.3-32.8-58.1-57.5-81.2c-2-1.9-4.1-3.8-7.3-6.6c-3.6,8.1-8.7,14.6-8.5,23.3
			C70.5,283,67.4,285.8,61.9,286.3z"/>
	</g>
</g>
<g id="icon-to-trace">
	<g opacity="0.91">
		<path fill="#231F20" d="M178.1,118.2c1,0,2,0,2.9,0c0.3,0.1,0.7,0,1,0.1c3.8-0.1,7.3,1,10.6,2.5c3.4,1.6,6.5,3.7,9.1,6.4
			c0.4,0.4,0.7,0.5,1.2,0.4c4.2-0.9,8.3-2.2,12.2-3.9c1.9-0.8,3.8-1.8,5.6-2.8c0.1-0.1,0.2-0.1,0.3-0.2c0.3-0.1,0.5-0.3,0.8-0.1
			c0.3,0.2,0.2,0.5,0.1,0.8c-0.5,1.4-1.1,2.8-1.8,4.1c-1.6,3-3.6,5.6-6,8c-1.4,1.4-3,2.6-4.6,3.7c2.9-0.4,5.7-1,8.5-1.8
			c2.4-0.7,4.7-1.5,7-2.4c0.3-0.1,0.8-0.4,1-0.1c0.3,0.3-0.1,0.7-0.3,1.1c-2.7,3.9-5.8,7.4-9.2,10.6c-1.5,1.4-3.2,2.8-4.9,4
			c-0.5,0.4-0.7,0.8-0.7,1.4c0,1.1,0,2.2,0,3.3c0,4.4-0.4,8.7-1,13.1c-0.8,5-2,9.9-3.6,14.8c-2.8,8.3-6.7,16.2-11.7,23.4
			c-2.2,3.1-4.5,6.1-7,8.9c-4.9,5.5-10.5,10.3-16.7,14.4c-5.5,3.6-11.3,6.5-17.5,8.7c-5.1,1.8-10.2,3.1-15.5,4
			c-3.1,0.5-6.2,0.9-9.4,0.9c-2.7,0-5.4,0.1-8,0.1c-8.3,0-16.3-1.3-24.2-3.7c-7.4-2.2-14.3-5.4-20.8-9.5c-0.3-0.2-0.7-0.4-0.8-0.8
			c0.1-0.5,0.5-0.4,0.8-0.4c2.3,0.2,4.7,0.4,7,0.3c4.4-0.1,8.7-0.5,13-1.5c5.2-1.2,10.2-3,15-5.4c3.2-1.6,6.2-3.6,9.2-5.8
			c-1.5-0.2-3-0.3-4.5-0.6c-5.4-1.1-10.3-3.4-14.5-7c-3.1-2.6-5.6-5.8-7.5-9.4c-0.7-1.3-1.2-2.6-1.7-4c-0.3-0.8,0-1.2,0.9-1
			c1.7,0.2,3.4,0.5,5.2,0.4c2.1,0,4.2-0.3,6.3-0.7c0.2,0,0.3-0.1,0.5-0.1c-4.3-1.1-8.2-2.9-11.7-5.6c-3.5-2.7-6.4-6.1-8.5-10.1
			c-1.8-3.5-3-7.1-3.5-11c-0.1-1.1-0.2-2.3-0.2-3.4c0-0.8,0.4-1,1.1-0.6c3.5,1.8,7.3,2.9,11.2,3.3c0.3,0,0.6,0,0.9,0
			c-3.8-2.9-7-6.3-9.3-10.6c-2-3.7-3.2-7.6-3.6-11.8c-0.6-6.3,0.5-12.3,3.5-18c0.1-0.1,0.1-0.2,0.2-0.3c0.4-0.6,0.8-0.6,1.3-0.1
			c0.8,0.9,1.5,1.8,2.3,2.7c1.7,1.9,3.5,3.7,5.3,5.5c2.9,2.7,5.9,5.2,9.1,7.5c3.8,2.7,7.8,5.2,12.1,7.2c6.6,3.3,13.5,5.6,20.7,7.2
			c3.3,0.7,6.6,1.2,9.9,1.5c1,0.1,2,0.1,3,0.2c0.4,0,0.4-0.2,0.4-0.5c-0.2-1.2-0.4-2.4-0.5-3.7c-0.1-1.7-0.1-3.5,0-5.2
			c0.2-1.9,0.5-3.8,1-5.7c1.3-4.7,3.6-8.8,6.8-12.5c2.7-3.1,5.9-5.5,9.6-7.3c2.4-1.2,5-2.1,7.7-2.6c1.1-0.2,2.2-0.2,3.4-0.3
			c0.2,0,0.5,0,0.7,0C177.6,118.2,177.9,118.3,178.1,118.2z"/>
		<path fill="#231F20" d="M182.1,118.2c0,0,0,0.1,0,0.1c-0.4,0-0.7,0.1-1.1-0.1C181.4,118.2,181.8,118.2,182.1,118.2z"/>
		<path fill="#231F20" d="M176.6,118.3c0,0,0-0.1,0-0.1c0.3,0,0.5,0,0.8,0c0.1,0.1,0.1,0.1,0,0.1
			C177.2,118.3,176.9,118.3,176.6,118.3z"/>
		<path fill="#231F20" d="M177.4,118.3c0,0,0-0.1,0-0.1c0.2,0,0.4,0,0.7,0C177.9,118.4,177.7,118.3,177.4,118.3z"/>
	</g>
</g>
<g id="social_x27_s-icon">
</g>
</svg>
