<?xml version="1.0" encoding="utf-8"?>
<!-- Generator: Adobe Illustrator 18.1.0, SVG Export Plug-In . SVG Version: 6.00 Build 0)  -->
<svg version="1.1" xmlns="http://www.w3.org/2000/svg" xmlns:xlink="http://www.w3.org/1999/xlink" x="0px" y="0px"
	 viewBox="0 0 281 360" enable-background="new 0 0 281 360" xml:space="preserve">
<g id="background-orange" display="none">
	<rect display="inline" fill="#F78F1E" width="281" height="360"/>
</g>
<g id="hair">
	<defs>
		<filter id="Adobe_OpacityMaskFilter" filterUnits="userSpaceOnUse" x="2.6" y="5.3" width="275" height="351.5">
			
				<feColorMatrix  type="matrix" values="-1 0 0 0 1  0 -1 0 0 1  0 0 -1 0 1  0 0 0 1 0" color-interpolation-filters="sRGB" result="source"/>
			<feFlood  style="flood-color:white;flood-opacity:1" result="back"/>
			<feBlend  in="source" in2="back" mode="normal"/>
		</filter>
	</defs>
	<mask maskUnits="userSpaceOnUse" x="2.6" y="5.3" width="275" height="351.5" id="SVGID_1_">
		<g filter="url(#Adobe_OpacityMaskFilter)">
			
				<image overflow="visible" width="1500" height="1500" xlink:href="../../../Icons/simplified-hair-icons/for-creating-icons/texture.jpg"  transform="matrix(0.1837 0 0 0.2345 1.908 4.9502)">
			</image>
		</g>
	</mask>
	<g mask="url(#SVGID_1_)">
		<path fill="#FFFFFF" d="M61.9,286.3c-3.2-0.9-2.6-3.8-3.2-6c-0.4-13.7-7.1-25-14.4-35.8c-2.9-4.2-6.5-9.8-13.5-3.3
			c-4.9,4.6-7-0.4-8.7-4.6c-5.5-13.9-11.1-27.7-16.9-41.5c-4.3-10.2-3-19.8,1.9-29.6c6.9-13.8,13.4-27.8,22.8-40.3
			c2.8-3.7,4.5-9.4,9.7-9c6.4,0.5,4.7,7,5.8,11.3c0.3,1.2,1.6,2.2,3.2,4.3c15.7-22.4,26.6-46,30.5-72.6c0.4-3-1.7-7.7,2.7-8.3
			c4.8-0.6,5,4.2,6.2,7.8c2.2,7,5,13.9,8.5,23.5c12.9-26.5,31.3-45.9,48.9-66c2.2-2.5,4.4-5,7.1-6.9c7.1-5.1,12.5-7.5,15.5,4.9
			c4.8,20.3,8.3,41.1,18.9,59.7c2.3,4,3.3,8.6,7,12.2c3.4-5.6,5.9-10.9,7.9-16.6c2.9-8.3,6.5-13.3,15.4-3.1
			c11.8,13.4,17.3,29.4,22.5,46.5c7.8-4.9,14.4-9.3,21.2-13.1c5.9-3.4,10.1-1,8.3,5.5c-5.6,20.7,2.3,39.9,7,58.9
			c4.9,20-3.8,36.7-6.7,54.8c-0.3,1.9-1,3.9-3.2,4c-20.2,0.5-23.5,18.1-30.3,31.1c-5.4,10.2-9.4,10.9-14.4,1.1
			c-5.6-10.9-10.8-9.7-15.9-0.3c-6.3,11.4-15.4,21-19.1,34.1c-1.5,5.2-6.3,12.9-11.5,1.1c-1.1-2.4-3.5-4.8-5.9-5.9
			c-2.7-1.3-5.7-4.9-8.8-2.6c-1.6,1.2-1.7,5.1-1.6,7.7c0.7,20.7-5.8,41.9,4.3,62c1,2,1.2,4-0.6,4.8c-1.5,0.7-4.2,0.8-5.3-0.2
			c-5.1-4.1-9.2-9-13.3-14.3c-20.2-26.3-32.8-58.1-57.5-81.2c-2-1.9-4.1-3.8-7.3-6.6c-3.6,8.1-8.7,14.6-8.5,23.3
			C70.5,283,67.4,285.8,61.9,286.3z"/>
	</g>
</g>
<g id="social_x27_s-icon" opacity="0.8">
	<path d="M85.1,153v62.5c0,0,2.4,15.1,17.4,17.9h81.1c0,0,14.9-1.9,18.2-17.2V153H85.1z"/>
	<path d="M85.1,151.6v-17.4c0,0,3-15.5,17.9-17.6h79.9c0,0,15.5,0.5,19,17.5v17.5H85.1z"/>
	<path fill="#FFFFFF" d="M170.2,128.2v15.6c0,0,1.2,2.2,2.9,2.9h16c0,0,1.2,0.9,3.9-3.5v-15c0,0-1.2-3.4-4.4-3.8h-14.8
		C173.9,124.5,170.2,126.5,170.2,128.2z"/>
	<circle cx="181.5" cy="136" r="7.4"/>
	<circle fill="#FFFFFF" cx="143.5" cy="175.6" r="30.6"/>
	<circle cx="143.5" cy="175" r="19.7"/>
	<circle fill="#FFFFFF" cx="143.5" cy="175" r="13.2"/>
</g>
</svg>
