<?xml version="1.0" encoding="utf-8"?>
<!-- Generator: Adobe Illustrator 18.1.0, SVG Export Plug-In . SVG Version: 6.00 Build 0)  -->
<svg version="1.1" id="Layer_1" xmlns="http://www.w3.org/2000/svg" xmlns:xlink="http://www.w3.org/1999/xlink" x="0px" y="0px"
	 viewBox="23.4 0 169.1 216" enable-background="new 23.4 0 169.1 216" xml:space="preserve">
<g id="Layer_3" display="none">
	<rect x="23.7" y="0" display="inline" fill="#F78F1E" width="168.6" height="216"/>
</g>
<g id="Layer_1_1_">
	<g>
		<path fill="#FFFFFF" d="M60.8,171.8c-1.9-0.5-1.6-2.3-1.9-3.6c-0.2-8.2-4.3-15-8.6-21.5c-1.7-2.5-3.9-5.9-8.1-2
			c-2.9,2.8-4.2-0.2-5.2-2.8c-3.3-8.3-6.7-16.6-10.1-24.9c-2.6-6.1-1.8-11.9,1.1-17.8c4.1-8.3,8-16.7,13.7-24.2
			c1.7-2.2,2.7-5.6,5.8-5.4c3.8,0.3,2.8,4.2,3.5,6.8c0.2,0.7,1,1.3,1.9,2.6c9.4-13.4,16-27.6,18.3-43.6c0.2-1.8-1-4.6,1.6-5
			c2.9-0.4,3,2.5,3.7,4.7c1.3,4.2,3,8.3,5.1,14.1c7.7-15.9,18.8-27.5,29.3-39.6c1.3-1.5,2.6-3,4.3-4.1c4.3-3.1,7.5-4.5,9.3,2.9
			c2.9,12.2,5,24.7,11.3,35.8c1.4,2.4,2,5.2,4.2,7.3c2-3.4,3.5-6.5,4.7-10c1.7-5,3.9-8,9.2-1.9c7.1,8,10.4,17.6,13.5,27.9
			c4.7-2.9,8.6-5.6,12.7-7.9c3.5-2,6.1-0.6,5,3.3c-3.4,12.4,1.4,23.9,4.2,35.3c2.9,12-2.3,22-4,32.9c-0.2,1.1-0.6,2.3-1.9,2.4
			c-12.1,0.3-14.1,10.9-18.2,18.7c-3.2,6.1-5.6,6.5-8.6,0.7c-3.4-6.5-6.5-5.8-9.5-0.2c-3.8,6.8-9.2,12.6-11.5,20.5
			c-0.9,3.1-3.8,7.7-6.9,0.7c-0.7-1.4-2.1-2.9-3.5-3.5c-1.6-0.8-3.4-2.9-5.3-1.6c-1,0.7-1,3.1-1,4.6c0.4,12.4-3.5,25.1,2.6,37.2
			c0.6,1.2,0.7,2.4-0.4,2.9c-0.9,0.4-2.5,0.5-3.2-0.1c-3.1-2.5-5.5-5.4-8-8.6c-12.1-15.8-19.7-34.9-34.5-48.7
			c-1.2-1.1-2.5-2.3-4.4-4c-2.2,4.9-5.2,8.8-5.1,14C66,169.8,64.1,171.5,60.8,171.8z"/>
	</g>
</g>
<g id="Layer_2" opacity="0.92">
	<g opacity="0.89">
		<path d="M131.8,177.8c-0.8-0.1-1.7-1.1-2.4-2.3c-0.6-0.8-0.9-2-1.7-2.9c-0.6-0.7-1.4-1.3-2.2-1.8l0.1-61.4h-6
			c-1.7,0-3.2,0.6-4.5,1.8c-1,1.2-1.5,2.5-1.5,4v-23c0,1.7,0.5,3.1,1.5,4.3c1.3,1,2.8,1.4,4.5,1.4h6v-23c0-3.1,1.1-5.8,3.4-7.9
			c2.3-2.4,5.1-3.6,8.6-3.6h12v23c0-3.1-1.3-5.8-3.8-7.9c-2.2-2.4-5-3.6-8.3-3.6v23h6c1.5,0,2.9-0.5,4.1-1.4
			c1.3-1.2,1.9-2.6,1.9-4.3v23c0-1.4-0.6-2.8-1.9-4c-1.3-1.2-2.6-1.8-4.1-1.8h-6v58.9c-0.6,1-1.4,3.1-1.9,4.7
			c-0.2,0.8-0.7,2.2-1,2.6c-0.4,0.7-1.3,2.1-2.3,2.1h-0.5V177.8z"/>
	</g>
</g>
</svg>
